<?xml version="1.0" encoding="UTF-8"?>
<!DOCTYPE svg PUBLIC "-//W3C//DTD SVG 1.1//EN" "http://www.w3.org/Graphics/SVG/1.1/DTD/svg11.dtd">
<!-- Creator: CorelDRAW 2020 (64 Bit) -->
<svg xmlns="http://www.w3.org/2000/svg" xml:space="preserve" width="210mm" height="127.666mm" version="1.1" style="shape-rendering:geometricPrecision; text-rendering:geometricPrecision; image-rendering:optimizeQuality; fill-rule:evenodd; clip-rule:evenodd"
viewBox="0 0 21000 12766.62"
 xmlns:xlink="http://www.w3.org/1999/xlink"
 xmlns:xodm="http://www.corel.com/coreldraw/odm/2003">
 <defs>
  <style type="text/css">
   <![CDATA[
    .str1 {stroke:#F58634;stroke-width:20;stroke-miterlimit:22.9256}
    .str0 {stroke:#AC3335;stroke-width:20;stroke-miterlimit:22.9256}
    .fil0 {fill:none}
    .fil1 {fill:#F58634}
    .fil2 {fill:#AC3335}
   ]]>
  </style>
 </defs>
 <g id="Camada_x0020_1">
  <metadata id="CorelCorpID_0Corel-Layer"/>
  <path class="fil0 str0" d="M20970.96 18.52l-15490.8 0 0 0c966.11,2903.08 4811.02,3846.93 6388.14,2888.28 4829.94,-2935.88 6814.27,6227.51 9102.66,3198.9 0,-2029.05 0,-4058.13 0,-6087.18z"/>
  <path class="fil1 str1" d="M21015.45 -1.57l-8750.83 -4.06 0 0c2160.13,1337.78 1952.99,1242.76 3078.48,1112.3 2151.53,-249.39 1636.03,4651.83 5672.35,1477.61l0 -2585.85z"/>
  <path class="fil2 str0" d="M-9.7 -5.63l13867.76 0 0 0c-862.41,1761.76 -4294.61,2334.55 -5702.45,1752.79 -4311.51,-1781.68 -6122.56,3779.23 -8165.31,1941.28l0 -3694.07z"/>
 </g>
</svg>
